<mxfile host="app.diagrams.net" agent="Mozilla/5.0 (Windows NT 10.0; Win64; x64; rv:133.0) Gecko/20100101 Firefox/133.0" version="24.9.1">
  <diagram id="C5RBs43oDa-KdzZeNtuy" name="Page-1">
    <mxGraphModel dx="1434" dy="782" grid="1" gridSize="10" guides="1" tooltips="1" connect="1" arrows="1" fold="1" page="1" pageScale="1" pageWidth="827" pageHeight="1169" math="0" shadow="0">
      <root>
        <mxCell id="WIyWlLk6GJQsqaUBKTNV-0" />
        <mxCell id="WIyWlLk6GJQsqaUBKTNV-1" parent="WIyWlLk6GJQsqaUBKTNV-0" />
        <mxCell id="rnLozNpdhUve7-fL2K5q-3" style="edgeStyle=orthogonalEdgeStyle;rounded=0;orthogonalLoop=1;jettySize=auto;html=1;fillColor=#FF8000;strokeColor=#d79b00;" edge="1" parent="WIyWlLk6GJQsqaUBKTNV-1" source="rnLozNpdhUve7-fL2K5q-0" target="rnLozNpdhUve7-fL2K5q-2">
          <mxGeometry relative="1" as="geometry" />
        </mxCell>
        <mxCell id="rnLozNpdhUve7-fL2K5q-0" value="&lt;div&gt;START&lt;/div&gt;" style="ellipse;whiteSpace=wrap;html=1;fillColor=#ffe6cc;strokeColor=#d79b00;" vertex="1" parent="WIyWlLk6GJQsqaUBKTNV-1">
          <mxGeometry x="530" y="40" width="120" height="80" as="geometry" />
        </mxCell>
        <mxCell id="rnLozNpdhUve7-fL2K5q-1" value="&lt;div&gt;END&lt;/div&gt;" style="ellipse;whiteSpace=wrap;html=1;fillColor=#ffe6cc;strokeColor=#d79b00;" vertex="1" parent="WIyWlLk6GJQsqaUBKTNV-1">
          <mxGeometry x="630" y="520" width="120" height="80" as="geometry" />
        </mxCell>
        <mxCell id="rnLozNpdhUve7-fL2K5q-6" style="edgeStyle=orthogonalEdgeStyle;rounded=0;orthogonalLoop=1;jettySize=auto;html=1;fillColor=#FF8000;strokeColor=#d79b00;" edge="1" parent="WIyWlLk6GJQsqaUBKTNV-1" source="rnLozNpdhUve7-fL2K5q-2" target="rnLozNpdhUve7-fL2K5q-5">
          <mxGeometry relative="1" as="geometry" />
        </mxCell>
        <mxCell id="rnLozNpdhUve7-fL2K5q-2" value="Felhasználó üdvözlése" style="rounded=1;whiteSpace=wrap;html=1;fontSize=12;glass=0;strokeWidth=1;shadow=0;fillColor=#ffe6cc;strokeColor=#d79b00;" vertex="1" parent="WIyWlLk6GJQsqaUBKTNV-1">
          <mxGeometry x="354" y="60" width="120" height="40" as="geometry" />
        </mxCell>
        <mxCell id="rnLozNpdhUve7-fL2K5q-9" style="edgeStyle=orthogonalEdgeStyle;rounded=0;orthogonalLoop=1;jettySize=auto;html=1;entryX=0.5;entryY=0;entryDx=0;entryDy=0;fillColor=#FF8000;strokeColor=#d79b00;" edge="1" parent="WIyWlLk6GJQsqaUBKTNV-1" source="rnLozNpdhUve7-fL2K5q-4" target="rnLozNpdhUve7-fL2K5q-8">
          <mxGeometry relative="1" as="geometry" />
        </mxCell>
        <mxCell id="rnLozNpdhUve7-fL2K5q-24" style="edgeStyle=orthogonalEdgeStyle;rounded=0;orthogonalLoop=1;jettySize=auto;html=1;entryX=0.5;entryY=0;entryDx=0;entryDy=0;fillColor=#FF8000;strokeColor=#d79b00;" edge="1" parent="WIyWlLk6GJQsqaUBKTNV-1" source="rnLozNpdhUve7-fL2K5q-4" target="rnLozNpdhUve7-fL2K5q-23">
          <mxGeometry relative="1" as="geometry" />
        </mxCell>
        <mxCell id="rnLozNpdhUve7-fL2K5q-31" style="edgeStyle=orthogonalEdgeStyle;rounded=0;orthogonalLoop=1;jettySize=auto;html=1;entryX=0.5;entryY=0;entryDx=0;entryDy=0;fillColor=#FF8000;strokeColor=#d79b00;" edge="1" parent="WIyWlLk6GJQsqaUBKTNV-1" source="rnLozNpdhUve7-fL2K5q-4" target="rnLozNpdhUve7-fL2K5q-35">
          <mxGeometry relative="1" as="geometry">
            <mxPoint x="690" y="310" as="targetPoint" />
          </mxGeometry>
        </mxCell>
        <mxCell id="rnLozNpdhUve7-fL2K5q-40" style="edgeStyle=orthogonalEdgeStyle;rounded=0;orthogonalLoop=1;jettySize=auto;html=1;exitX=1;exitY=1;exitDx=0;exitDy=0;fillColor=#FF8000;strokeColor=#d79b00;" edge="1" parent="WIyWlLk6GJQsqaUBKTNV-1" source="rnLozNpdhUve7-fL2K5q-4" target="rnLozNpdhUve7-fL2K5q-41">
          <mxGeometry relative="1" as="geometry">
            <mxPoint x="580" y="450" as="targetPoint" />
          </mxGeometry>
        </mxCell>
        <mxCell id="rnLozNpdhUve7-fL2K5q-4" value="Válasszon 1-2-3 Közül" style="rhombus;whiteSpace=wrap;html=1;shadow=0;fontFamily=Helvetica;fontSize=12;align=center;strokeWidth=1;spacing=6;spacingTop=-4;fillColor=#ffe6cc;strokeColor=#d79b00;" vertex="1" parent="WIyWlLk6GJQsqaUBKTNV-1">
          <mxGeometry x="300" y="190" width="230" height="80" as="geometry" />
        </mxCell>
        <mxCell id="rnLozNpdhUve7-fL2K5q-7" style="edgeStyle=orthogonalEdgeStyle;rounded=0;orthogonalLoop=1;jettySize=auto;html=1;entryX=0.5;entryY=0;entryDx=0;entryDy=0;fillColor=#FF8000;strokeColor=#d79b00;" edge="1" parent="WIyWlLk6GJQsqaUBKTNV-1" source="rnLozNpdhUve7-fL2K5q-5" target="rnLozNpdhUve7-fL2K5q-4">
          <mxGeometry relative="1" as="geometry" />
        </mxCell>
        <mxCell id="rnLozNpdhUve7-fL2K5q-5" value="Adatbekérési szándék jelzése" style="rounded=1;whiteSpace=wrap;html=1;fontSize=12;glass=0;strokeWidth=1;shadow=0;fillColor=#ffe6cc;strokeColor=#d79b00;" vertex="1" parent="WIyWlLk6GJQsqaUBKTNV-1">
          <mxGeometry x="190" y="60" width="120" height="40" as="geometry" />
        </mxCell>
        <mxCell id="rnLozNpdhUve7-fL2K5q-13" value="" style="edgeStyle=orthogonalEdgeStyle;rounded=0;orthogonalLoop=1;jettySize=auto;html=1;fillColor=#FF8000;strokeColor=#d79b00;" edge="1" parent="WIyWlLk6GJQsqaUBKTNV-1" source="rnLozNpdhUve7-fL2K5q-8" target="rnLozNpdhUve7-fL2K5q-12">
          <mxGeometry relative="1" as="geometry" />
        </mxCell>
        <mxCell id="rnLozNpdhUve7-fL2K5q-8" value="Új elem megadása" style="rounded=1;whiteSpace=wrap;html=1;fontSize=12;glass=0;strokeWidth=1;shadow=0;fillColor=#ffe6cc;strokeColor=#d79b00;" vertex="1" parent="WIyWlLk6GJQsqaUBKTNV-1">
          <mxGeometry x="110" y="300" width="120" height="40" as="geometry" />
        </mxCell>
        <UserObject label="1 - Új adat megadása" placeholders="1" name="Variable" id="rnLozNpdhUve7-fL2K5q-11">
          <mxCell style="text;html=1;strokeColor=#d79b00;fillColor=#ffe6cc;align=center;verticalAlign=middle;whiteSpace=wrap;overflow=hidden;" vertex="1" parent="WIyWlLk6GJQsqaUBKTNV-1">
            <mxGeometry x="180" y="190" width="100" height="40" as="geometry" />
          </mxCell>
        </UserObject>
        <mxCell id="rnLozNpdhUve7-fL2K5q-15" value="" style="edgeStyle=orthogonalEdgeStyle;rounded=0;orthogonalLoop=1;jettySize=auto;html=1;fillColor=#FF8000;strokeColor=#d79b00;" edge="1" parent="WIyWlLk6GJQsqaUBKTNV-1" source="rnLozNpdhUve7-fL2K5q-12" target="rnLozNpdhUve7-fL2K5q-14">
          <mxGeometry relative="1" as="geometry" />
        </mxCell>
        <mxCell id="rnLozNpdhUve7-fL2K5q-12" value="&lt;div&gt;Állapot megadása&lt;/div&gt;" style="whiteSpace=wrap;html=1;rounded=1;glass=0;strokeWidth=1;shadow=0;fillColor=#ffe6cc;strokeColor=#d79b00;" vertex="1" parent="WIyWlLk6GJQsqaUBKTNV-1">
          <mxGeometry x="110" y="370" width="120" height="60" as="geometry" />
        </mxCell>
        <mxCell id="rnLozNpdhUve7-fL2K5q-17" value="" style="edgeStyle=orthogonalEdgeStyle;rounded=0;orthogonalLoop=1;jettySize=auto;html=1;fillColor=#FF8000;strokeColor=#d79b00;" edge="1" parent="WIyWlLk6GJQsqaUBKTNV-1" source="rnLozNpdhUve7-fL2K5q-14" target="rnLozNpdhUve7-fL2K5q-16">
          <mxGeometry relative="1" as="geometry" />
        </mxCell>
        <mxCell id="rnLozNpdhUve7-fL2K5q-14" value="&lt;div&gt;Elem és állapot összefűzése&lt;/div&gt;" style="whiteSpace=wrap;html=1;rounded=1;glass=0;strokeWidth=1;shadow=0;fillColor=#ffe6cc;strokeColor=#d79b00;" vertex="1" parent="WIyWlLk6GJQsqaUBKTNV-1">
          <mxGeometry x="110" y="460" width="120" height="60" as="geometry" />
        </mxCell>
        <mxCell id="rnLozNpdhUve7-fL2K5q-18" style="edgeStyle=orthogonalEdgeStyle;rounded=0;orthogonalLoop=1;jettySize=auto;html=1;fillColor=#FF8000;strokeColor=#d79b00;" edge="1" parent="WIyWlLk6GJQsqaUBKTNV-1" source="rnLozNpdhUve7-fL2K5q-16">
          <mxGeometry relative="1" as="geometry">
            <mxPoint x="250" y="130" as="targetPoint" />
            <Array as="points">
              <mxPoint x="60" y="600" />
              <mxPoint x="60" y="130" />
            </Array>
          </mxGeometry>
        </mxCell>
        <mxCell id="rnLozNpdhUve7-fL2K5q-16" value="Listába helyezés" style="whiteSpace=wrap;html=1;rounded=1;glass=0;strokeWidth=1;shadow=0;fillColor=#ffe6cc;strokeColor=#d79b00;" vertex="1" parent="WIyWlLk6GJQsqaUBKTNV-1">
          <mxGeometry x="110" y="570" width="120" height="60" as="geometry" />
        </mxCell>
        <mxCell id="rnLozNpdhUve7-fL2K5q-27" value="" style="edgeStyle=orthogonalEdgeStyle;rounded=0;orthogonalLoop=1;jettySize=auto;html=1;fillColor=#FF8000;strokeColor=#d79b00;" edge="1" parent="WIyWlLk6GJQsqaUBKTNV-1" source="rnLozNpdhUve7-fL2K5q-23" target="rnLozNpdhUve7-fL2K5q-26">
          <mxGeometry relative="1" as="geometry" />
        </mxCell>
        <mxCell id="rnLozNpdhUve7-fL2K5q-32" value="" style="edgeStyle=orthogonalEdgeStyle;rounded=0;orthogonalLoop=1;jettySize=auto;html=1;fillColor=#FF8000;strokeColor=#d79b00;" edge="1" parent="WIyWlLk6GJQsqaUBKTNV-1" source="rnLozNpdhUve7-fL2K5q-23" target="rnLozNpdhUve7-fL2K5q-26">
          <mxGeometry relative="1" as="geometry" />
        </mxCell>
        <mxCell id="rnLozNpdhUve7-fL2K5q-23" value="&lt;div&gt;Lista kiírása&lt;/div&gt;" style="whiteSpace=wrap;html=1;rounded=1;glass=0;strokeWidth=1;shadow=0;fillColor=#ffe6cc;strokeColor=#d79b00;" vertex="1" parent="WIyWlLk6GJQsqaUBKTNV-1">
          <mxGeometry x="390" y="430" width="120" height="60" as="geometry" />
        </mxCell>
        <mxCell id="rnLozNpdhUve7-fL2K5q-25" style="edgeStyle=orthogonalEdgeStyle;rounded=0;orthogonalLoop=1;jettySize=auto;html=1;exitX=0.5;exitY=1;exitDx=0;exitDy=0;fillColor=#FF8000;strokeColor=#d79b00;" edge="1" parent="WIyWlLk6GJQsqaUBKTNV-1" source="rnLozNpdhUve7-fL2K5q-23" target="rnLozNpdhUve7-fL2K5q-23">
          <mxGeometry relative="1" as="geometry" />
        </mxCell>
        <mxCell id="rnLozNpdhUve7-fL2K5q-28" style="edgeStyle=orthogonalEdgeStyle;rounded=0;orthogonalLoop=1;jettySize=auto;html=1;fillColor=#FF8000;strokeColor=#d79b00;" edge="1" parent="WIyWlLk6GJQsqaUBKTNV-1" source="rnLozNpdhUve7-fL2K5q-26">
          <mxGeometry relative="1" as="geometry">
            <mxPoint x="60" y="600" as="targetPoint" />
            <Array as="points">
              <mxPoint x="450" y="660" />
              <mxPoint x="60" y="660" />
            </Array>
          </mxGeometry>
        </mxCell>
        <mxCell id="rnLozNpdhUve7-fL2K5q-26" value="Elemek számának kiírásá" style="whiteSpace=wrap;html=1;rounded=1;glass=0;strokeWidth=1;shadow=0;fillColor=#ffe6cc;strokeColor=#d79b00;" vertex="1" parent="WIyWlLk6GJQsqaUBKTNV-1">
          <mxGeometry x="390" y="520" width="120" height="60" as="geometry" />
        </mxCell>
        <mxCell id="rnLozNpdhUve7-fL2K5q-33" value="&lt;div&gt;2 - Lista kiírása&lt;/div&gt;&lt;div&gt;&lt;br&gt;&lt;/div&gt;" style="text;html=1;align=center;verticalAlign=middle;resizable=0;points=[];autosize=1;strokeColor=#d79b00;fillColor=#ffe6cc;" vertex="1" parent="WIyWlLk6GJQsqaUBKTNV-1">
          <mxGeometry x="420" y="310" width="110" height="40" as="geometry" />
        </mxCell>
        <mxCell id="rnLozNpdhUve7-fL2K5q-34" value="3 - Kilépés" style="text;html=1;align=center;verticalAlign=middle;resizable=0;points=[];autosize=1;strokeColor=#d79b00;fillColor=#ffe6cc;" vertex="1" parent="WIyWlLk6GJQsqaUBKTNV-1">
          <mxGeometry x="550" y="188" width="80" height="30" as="geometry" />
        </mxCell>
        <mxCell id="rnLozNpdhUve7-fL2K5q-36" style="edgeStyle=orthogonalEdgeStyle;rounded=0;orthogonalLoop=1;jettySize=auto;html=1;fillColor=#FF8000;strokeColor=#d79b00;" edge="1" parent="WIyWlLk6GJQsqaUBKTNV-1" source="rnLozNpdhUve7-fL2K5q-35" target="rnLozNpdhUve7-fL2K5q-1">
          <mxGeometry relative="1" as="geometry" />
        </mxCell>
        <mxCell id="rnLozNpdhUve7-fL2K5q-35" value="Adatok feltöltése" style="whiteSpace=wrap;html=1;rounded=1;glass=0;strokeWidth=1;shadow=0;fillColor=#ffe6cc;strokeColor=#d79b00;" vertex="1" parent="WIyWlLk6GJQsqaUBKTNV-1">
          <mxGeometry x="630" y="330" width="120" height="60" as="geometry" />
        </mxCell>
        <mxCell id="rnLozNpdhUve7-fL2K5q-43" style="edgeStyle=orthogonalEdgeStyle;rounded=0;orthogonalLoop=1;jettySize=auto;html=1;fillColor=#FF8000;strokeColor=#d79b00;" edge="1" parent="WIyWlLk6GJQsqaUBKTNV-1" source="rnLozNpdhUve7-fL2K5q-41">
          <mxGeometry relative="1" as="geometry">
            <mxPoint x="450" y="660" as="targetPoint" />
            <Array as="points">
              <mxPoint x="585" y="560" />
              <mxPoint x="586" y="560" />
            </Array>
          </mxGeometry>
        </mxCell>
        <mxCell id="rnLozNpdhUve7-fL2K5q-41" value="Ismeretlen opció" style="rounded=1;whiteSpace=wrap;html=1;fillColor=#ffe6cc;strokeColor=#d79b00;" vertex="1" parent="WIyWlLk6GJQsqaUBKTNV-1">
          <mxGeometry x="540" y="420" width="90" height="40" as="geometry" />
        </mxCell>
        <mxCell id="rnLozNpdhUve7-fL2K5q-42" value="Egyéb " style="text;html=1;align=center;verticalAlign=middle;resizable=0;points=[];autosize=1;strokeColor=#d79b00;fillColor=#ffe6cc;" vertex="1" parent="WIyWlLk6GJQsqaUBKTNV-1">
          <mxGeometry x="490" y="248" width="60" height="30" as="geometry" />
        </mxCell>
      </root>
    </mxGraphModel>
  </diagram>
</mxfile>
